<svg width="165" height="139" viewBox="0 0 165 139" fill="none" xmlns="http://www.w3.org/2000/svg">
<g clip-path="url(#clip0_165_138)">
<path d="M158.139 47.9507H119.285C117.829 47.9507 116.648 46.7671 116.648 45.3089V6.79404C116.654 3.04065 113.612 0 109.865 0H81.3708C77.6237 0 74.5882 3.04065 74.5882 6.79404V45.3023C74.5882 46.7605 73.4067 47.9441 71.9509 47.9441H33.0967C29.3105 47.9441 26.2358 51.0175 26.2358 54.8166V83.2091C26.2358 87.0017 29.304 90.0816 33.0967 90.0816H71.9509C73.4067 90.0816 74.5882 91.2651 74.5882 92.7233V132.199C74.5882 135.953 77.6237 138.993 81.3708 138.993H109.865C113.612 138.993 116.648 135.953 116.648 132.199V92.7233C116.648 91.2651 117.829 90.0816 119.285 90.0816H158.139C161.925 90.0816 165 87.0082 165 83.2091V54.8166C165 51.024 161.932 47.9507 158.139 47.9507Z" fill="#90CCB7"/>
<path d="M89.5959 75.0549C92.8925 58.4196 96.7113 42.0786 99.1267 32.5186H99.0026C93.1014 46.1001 72.3621 81.6201 54.8085 113.347H42.8428C39.5332 87.8845 33.521 47.2575 32.1893 32.5905H32.0652C30.6095 43.2295 27.2084 62.0619 24.1795 77.4286L16.9531 113.347H4.41943L22.6324 22.5662H42.0464C46.2831 50.6905 52.23 87.9629 52.7065 95.1886H52.8306C57.4393 86.0405 78.6028 49.6508 93.826 22.5662H113.469L95.2556 113.347H81.9321L89.5959 75.0549Z" fill="#9C9B9B"/>
<path d="M98.2193 116.983H77.5061L86.0447 74.3487C87.0434 69.294 88.0944 64.2655 89.1454 59.4332C84.6999 67.4958 79.5428 76.657 74.0724 86.3739C68.7391 95.849 63.2165 105.644 57.9811 115.113L56.9497 116.983H39.6637L39.2525 113.825C38.0709 104.716 36.5042 93.4361 34.9962 82.529C33.8277 74.0675 32.6331 65.4818 31.5952 57.6872C30.3222 64.7232 28.9579 71.9031 27.7307 78.1348L19.9167 116.977H0L19.6687 18.9435H45.1668L45.6302 22.03C46.74 29.3994 47.9672 37.3967 49.1814 45.322C51.427 59.9432 53.5878 74.0479 54.9456 83.6995C59.1757 76.1142 65.1618 65.6387 71.7093 54.1627C78.1459 42.8894 84.8044 31.2304 90.6664 20.7941L91.7044 18.9435H117.888L98.2193 116.983ZM86.3515 109.725H92.2919L109.049 26.1953H95.941C90.327 36.1673 84.0667 47.1333 77.9957 57.7592C68.1516 75.0026 58.8493 91.2913 56.0619 96.8298L55.0566 98.8242H49.436L49.09 95.437C48.7506 90.2581 45.33 67.9731 42.0203 46.4205C40.9758 39.5872 39.9183 32.6951 38.9326 26.1953H25.6025L8.84535 109.725H13.9894L20.6283 76.7158C23.4549 62.3953 26.9799 43.0333 28.4748 32.1001L28.9057 28.9679H35.3683L35.7927 32.2635C36.6413 41.5882 39.4548 61.8918 42.1704 81.5351C43.5152 91.2259 44.8926 101.218 46.0219 109.731H52.6804C57.6155 100.825 62.7661 91.6771 67.7599 82.8102C80.0324 61.0156 91.6195 40.4373 95.6864 31.08L96.633 28.9025H103.657L102.639 33.4209C100.191 43.1052 96.411 59.3155 93.1471 75.7676V75.7742L86.3515 109.725Z" fill="white"/>
<path d="M89.5956 74.7999C92.8922 58.1646 96.7111 41.8236 99.1264 32.2636H99.0024C93.1011 45.8451 72.3619 81.3651 54.8083 113.092H42.8426C39.5329 87.6295 33.5207 47.0025 32.189 32.3355H32.065C30.6093 42.9745 27.2082 61.8068 24.1792 77.1736L16.9528 113.092H4.41919L22.6321 22.3112H42.0462C46.2828 50.4355 52.2298 87.7079 52.7063 94.9335H52.8303C57.4391 85.7854 78.6026 49.3958 93.8257 22.3112H113.468L95.2554 113.092H81.9319L89.5956 74.7999Z" fill="#676766"/>
<path d="M95.5492 113.459H81.4881L89.2432 74.728C92.1808 59.9105 95.5362 45.2762 97.9776 35.3957C92.9968 45.8582 82.3955 64.684 71.2327 84.5103C65.8928 93.9919 60.3767 103.794 55.1283 113.275L55.0238 113.465H42.5294L42.4902 113.151C41.3021 104.029 39.7419 92.743 38.234 81.8293C35.7273 63.7424 33.1487 45.0866 32.0782 34.8726C30.4201 46.159 27.1757 63.8863 24.5384 77.252L17.2532 113.465H3.98193L22.3385 21.9515H42.3596L42.4053 22.2588C43.5151 29.6349 44.7423 37.6321 45.9631 45.5574C49.2401 66.9007 52.3409 87.1259 52.9806 93.8481C56.2446 87.5706 64.757 72.6551 74.5358 55.5229C80.9789 44.243 87.6374 32.5774 93.506 22.1346L93.6104 21.9515H113.912L95.5492 113.459ZM82.3693 112.733H94.9552L113.025 22.6773H94.0347C88.1857 33.0744 81.5664 44.6681 75.169 55.8825C64.8745 73.9171 55.9834 89.4865 53.1568 95.097L53.0589 95.2997H52.3735L52.3539 94.9597C52.0014 89.6369 48.7244 68.2805 45.2515 45.662C44.0504 37.8479 42.8427 29.9618 41.7395 22.6708H22.9325L4.8632 112.733H16.6526L23.8203 77.1016C26.66 62.7223 30.1981 43.2818 31.7061 32.2832L31.7518 31.9693H32.5221L32.5547 32.2962C33.4098 41.6994 36.2299 62.0423 38.9521 81.7182C40.447 92.5076 41.9876 103.657 43.1691 112.733H54.606C59.8219 103.31 65.3053 93.5734 70.606 84.1507C82.9177 62.2842 94.5505 41.6274 98.6826 32.1197L98.774 31.9039H99.5965L99.479 32.3551C97.018 42.0786 93.2253 58.3542 89.9548 74.8718L82.3693 112.733Z" fill="#676766"/>
</g>
<defs>
<clipPath id="clip0_165_138">
<rect width="165" height="139" fill="white"/>
</clipPath>
</defs>
</svg>
